<svg width="16" height="16" viewBox="0 0 16 16" fill="none" xmlns="http://www.w3.org/2000/svg">
<rect width="16" height="16" rx="2" fill="#085896"/>
<circle cx="13.45" cy="13.75" r="0.75" fill="white"/>
<path d="M7.19355 5.1718L7.13404 5.11939C7.42613 4.07112 7.16024 2.89946 6.33637 2.07504C5.51741 1.25826 4.35995 0.990736 3.31768 1.273L5.08227 3.03759L4.61929 4.76669L2.89019 5.22913L1.12451 3.46563C0.843879 4.50735 1.11086 5.66536 1.92982 6.48432C2.78754 7.34259 4.02363 7.59428 5.10411 7.24268L5.11394 7.2525L12.3754 14.5134C12.6626 14.8 13.0382 14.9453 13.4149 14.9453C13.7916 14.9453 14.1667 14.8 14.4555 14.5134C15.0305 13.9407 15.0305 13.0098 14.4555 12.4327L7.19355 5.1718ZM13.5416 14.2666C13.2326 14.2666 12.9809 14.0149 12.9809 13.7048C12.9809 13.3936 13.2326 13.143 13.5416 13.143C13.8528 13.143 14.1039 13.3936 14.1039 13.7048C14.1045 14.0149 13.8533 14.2666 13.5416 14.2666Z" fill="white"/>
<path d="M14.8401 5.566C14.749 5.17095 14.5359 4.80872 14.2265 4.52313L11.4336 1.94433C11.2832 1.80548 12.2417 2.91561 12.0914 3.05446H12.389L11.7081 2.32129L11.5962 2.59727C11.7466 2.45842 11.7466 2.23331 11.5962 2.09446L10.5829 1.15882C10.4325 1.01998 10.1887 1.01998 10.0383 1.15882L8.4258 2.64768C8.27542 2.78653 8.27542 3.01164 8.4258 3.15049L9.43912 4.0861C9.5895 4.22495 10.2402 4.4633 10.3906 4.32445L10.4783 5.0461L10.7159 4.32445L9.43912 4C9.28883 4.13877 10.3282 4.90722 10.4783 5.0461L10.6722 5.22545L2.33918 12.9195C1.86468 13.3576 1.86468 14.068 2.33918 14.5061C2.81367 14.9442 3.58303 14.9442 4.05752 14.5061L12.389 6.81354L12.8045 7.1979C13.4612 7.80535 13.8331 8.62677 13.84 9.485C13.8407 9.57979 13.9115 9.66185 14.0113 9.68379C14.1112 9.70575 14.2144 9.66191 14.2613 9.57761C14.949 8.34188 15.1535 6.9248 14.8401 5.566Z" fill="white"/>
</svg>
